<?xml version="1.0" standalone="no"?>
<!DOCTYPE svg PUBLIC "-//W3C//DTD SVG 20010904//EN"
 "http://www.w3.org/TR/2001/REC-SVG-20010904/DTD/svg10.dtd">
<svg version="1.0" xmlns="http://www.w3.org/2000/svg"
 width="2977.000000pt" height="1014.000000pt" viewBox="0 0 2977.000000 1014.000000"
 preserveAspectRatio="xMidYMid meet">

<g transform="translate(0.000000,1014.000000) scale(0.100000,-0.100000)"
fill="#000000" stroke="none">
<path d="M3568 10127 c-92 -26 -159 -101 -180 -198 -16 -78 8 -155 69 -220 63
-67 98 -76 378 -88 347 -16 624 -55 927 -131 777 -195 1483 -584 2058 -1135
138 -132 169 -150 265 -150 80 1 130 22 181 77 53 55 68 95 68 173 0 95 -19
127 -150 255 -827 802 -1917 1300 -3074 1404 -254 23 -486 28 -542 13z"/>
<path d="M3405 9170 c-828 -51 -1620 -338 -2257 -818 -164 -123 -328 -264
-430 -369 -64 -66 -79 -88 -93 -137 -61 -211 161 -395 356 -296 21 11 89 67
150 125 270 256 618 493 944 645 373 173 737 275 1165 326 176 21 580 24 750
5 589 -63 1129 -248 1602 -548 208 -132 375 -262 591 -462 82 -76 108 -94 154
-107 100 -29 188 -2 260 80 69 78 81 182 34 280 -37 75 -353 355 -591 522
-597 420 -1305 679 -2030 743 -171 15 -458 20 -605 11z"/>
<path d="M3130 7950 c-655 -50 -1244 -397 -1602 -945 -213 -325 -338 -742
-338 -1131 -1 -942 636 -1774 1543 -2019 208 -57 306 -67 678 -72 410 -6 430
-3 509 76 47 48 80 119 80 176 0 83 -65 186 -144 228 -39 21 -56 22 -406 28
-321 5 -378 9 -473 28 -599 122 -1081 575 -1227 1155 -42 165 -54 285 -47 460
10 234 52 405 152 613 157 329 415 588 739 743 197 94 348 132 604 153 134 11
165 17 202 38 150 83 173 295 44 409 -70 61 -135 74 -314 60z"/>
<path d="M3937 7296 c-192 -52 -256 -286 -116 -425 55 -56 97 -68 254 -75 284
-14 522 -54 749 -127 850 -271 1514 -926 1796 -1769 75 -224 124 -501 135
-760 8 -168 22 -224 71 -274 106 -109 259 -112 364 -6 70 69 85 125 76 289
-31 586 -178 1083 -460 1559 -289 486 -732 915 -1232 1191 -381 211 -836 352
-1261 390 -204 19 -325 21 -376 7z"/>
<path d="M10457 7239 c-538 -62 -1019 -373 -1231 -797 -159 -317 -186 -767
-66 -1118 78 -229 215 -405 435 -559 262 -183 499 -285 1027 -444 632 -191
847 -300 936 -477 68 -136 68 -294 1 -427 -31 -60 -143 -167 -216 -205 -116
-61 -232 -84 -453 -89 -224 -6 -352 9 -504 58 -288 94 -518 309 -645 605 -18
41 -35 68 -43 66 -14 -3 -798 -459 -810 -471 -9 -8 70 -188 127 -290 160 -282
461 -563 759 -706 193 -92 418 -158 651 -191 160 -23 567 -26 715 -6 608 84
1076 377 1295 811 109 217 161 515 135 776 -29 297 -138 558 -302 725 -118
121 -313 267 -446 334 -131 66 -451 186 -750 281 -680 217 -880 321 -972 508
-113 230 -22 493 212 610 123 62 178 72 388 71 219 -1 286 -15 445 -93 173
-85 312 -222 422 -418 40 -71 62 -101 72 -97 24 8 765 436 781 451 17 16 1 53
-85 194 -314 515 -813 833 -1407 898 -110 12 -368 12 -471 0z"/>
<path d="M21920 6597 l-435 -133 0 -1619 c0 -1518 1 -1627 18 -1728 45 -266
123 -442 261 -585 181 -190 436 -276 857 -289 165 -5 480 9 532 23 16 5 17 33
17 413 l0 407 -193 -4 c-309 -7 -434 21 -518 116 -71 81 -69 54 -69 917 l0
771 89 12 c104 14 225 55 308 103 88 52 232 199 282 289 65 119 92 215 98 353
l6 117 -392 0 -391 0 0 485 c0 455 -1 485 -17 484 -10 0 -214 -60 -453 -132z"/>
<path d="M3490 6271 c-59 -13 -109 -42 -145 -83 -110 -129 -73 -317 77 -392
l52 -26 270 0 c304 0 452 -10 594 -41 455 -99 859 -414 1067 -834 103 -207
147 -367 164 -592 34 -448 -122 -878 -438 -1205 -291 -302 -645 -463 -1066
-484 -143 -8 -196 -26 -254 -89 -132 -143 -57 -373 135 -416 72 -16 302 2 467
36 809 168 1442 790 1621 1595 36 165 46 262 46 455 -1 461 -138 872 -414
1244 -331 443 -813 728 -1381 817 -111 17 -732 29 -795 15z"/>
<path d="M155 6096 c-60 -28 -97 -66 -124 -126 -26 -57 -28 -223 -6 -436 66
-627 308 -1216 701 -1709 114 -142 359 -388 499 -500 211 -168 467 -327 696
-431 394 -178 800 -274 1229 -291 189 -7 235 4 304 73 96 96 102 239 13 340
-67 77 -97 86 -292 95 -478 22 -910 149 -1304 384 -358 214 -658 498 -889 845
-289 433 -437 885 -461 1410 -6 143 -12 184 -28 220 -58 129 -212 186 -338
126z"/>
<path d="M15017 5849 c-260 -23 -518 -115 -703 -252 -38 -28 -111 -93 -161
-145 l-93 -94 0 201 0 201 -450 0 -450 0 0 -2445 0 -2445 450 0 450 0 0 901 0
902 81 -87 c194 -207 440 -336 749 -393 131 -24 458 -24 585 -1 338 64 617
211 865 458 283 281 454 609 526 1005 22 119 30 471 15 601 -44 371 -174 686
-398 964 -85 106 -263 274 -366 347 -315 223 -690 319 -1100 282z m296 -893
c331 -100 565 -345 649 -682 19 -75 22 -116 22 -259 0 -231 -30 -352 -125
-522 -61 -108 -224 -271 -332 -332 -164 -92 -292 -124 -502 -124 -217 0 -356
35 -522 135 -82 48 -226 190 -283 276 -151 229 -197 549 -124 852 21 84 92
235 148 314 90 126 250 252 397 312 123 50 216 64 409 60 155 -3 185 -6 263
-30z"/>
<path d="M19035 5853 c-179 -12 -422 -65 -573 -124 -114 -45 -272 -130 -365
-196 -103 -74 -291 -254 -372 -358 -227 -290 -346 -612 -376 -1017 -34 -444
85 -901 318 -1228 83 -116 251 -291 358 -375 327 -254 744 -385 1226 -385 623
0 1103 213 1445 639 82 103 84 106 64 120 -11 7 -174 103 -363 212 l-342 198
-48 -55 c-185 -207 -463 -307 -811 -291 -448 21 -725 191 -864 531 -17 39 -33
81 -37 94 l-6 22 1315 0 c724 0 1316 3 1316 8 0 4 7 52 15 107 17 117 19 394
5 515 -50 397 -193 720 -453 1018 -352 404 -866 604 -1452 565z m337 -827
c347 -67 591 -306 672 -658 l6 -28 -886 0 -886 0 7 38 c11 58 61 180 102 250
125 211 332 351 586 397 98 18 308 18 399 1z"/>
<path d="M27560 5850 c-394 -41 -730 -212 -1021 -518 -340 -357 -509 -794
-509 -1315 0 -546 170 -974 534 -1345 349 -357 750 -518 1236 -499 237 10 417
51 596 136 144 69 244 140 362 257 l102 102 0 -199 0 -199 450 0 450 0 0 1745
0 1745 -450 0 -450 0 0 -200 0 -200 -97 98 c-204 205 -451 328 -753 377 -120
19 -340 26 -450 15z m623 -894 c331 -99 565 -346 649 -683 28 -114 31 -387 5
-499 -45 -197 -114 -321 -257 -464 -112 -112 -201 -171 -328 -217 -191 -69
-430 -80 -637 -27 -75 19 -224 90 -290 138 -125 91 -244 234 -305 370 -111
245 -117 595 -13 846 92 222 286 418 498 504 131 53 220 66 415 62 154 -3 186
-7 263 -30z"/>
<path d="M25680 5823 c-275 -29 -541 -150 -707 -320 -66 -67 -106 -125 -165
-238 l-47 -90 -1 293 0 292 -450 0 -450 0 0 -1745 0 -1745 449 0 450 0 4 918
c4 985 3 963 56 1116 85 242 291 414 590 493 82 22 119 26 253 27 l158 1 0
503 0 502 -52 -2 c-29 0 -69 -3 -88 -5z"/>
<path d="M805 2656 c-115 -37 -170 -100 -190 -214 -8 -50 14 -134 47 -177 40
-53 233 -230 371 -340 530 -426 1152 -711 1827 -839 901 -171 1831 -41 2652
370 336 168 644 380 935 644 183 166 212 208 212 315 1 96 -75 205 -165 236
-52 17 -140 15 -187 -5 -21 -10 -84 -60 -140 -113 -191 -180 -411 -350 -622
-478 -1074 -653 -2418 -710 -3541 -150 -331 164 -590 345 -880 612 -67 62
-138 120 -156 127 -52 22 -119 27 -163 12z"/>
<path d="M1372 985 c-148 -75 -186 -277 -73 -395 44 -46 201 -125 436 -218
433 -172 895 -286 1375 -339 231 -25 837 -25 1055 0 620 72 1115 211 1666 465
104 48 155 91 185 157 62 132 -11 303 -145 343 -85 26 -132 17 -289 -54 -481
-218 -898 -335 -1422 -399 -182 -22 -659 -31 -860 -16 -585 45 -1106 180
-1615 419 -104 49 -130 57 -190 60 -60 3 -78 0 -123 -23z"/>
</g>
</svg>
